{
  "source": "C:\\Users\\Peter\\Desktop\\stuff\\MIUN\\quantitative_research\\video_compression\\videos\\UVG\\HoneyBee_1920x1080_120fps_420_8bit_YUV.y4m",
  "output": "C:\\Users\\Peter\\Desktop\\stuff\\MIUN\\quantitative_research\\video_compression\\compressed_videos\\UVG\\h264\\1.5\\HoneyBee_1920x1080_120fps_420_8bit_YUV_h264.mp4",
  "codec": "h264",
  "ok": "[yuv4mpegpipe @ 000001e789ee5ec0] Stream #0: not enough frames to estimate rate; consider increasing probesize\nInput #0, yuv4mpegpipe, from 'C:\\Users\\Peter\\Desktop\\stuff\\MIUN\\quantitative_research\\video_compression\\videos\\UVG\\HoneyBee_1920x1080_120fps_420_8bit_YUV.y4m':\n  Duration: 00:00:05.00, start: 0.000000, bitrate: 2985989 kb/s\n  Stream #0:0: Video: rawvideo (I420 / 0x30323449), yuv420p(progressive), 1920x1080, 120 fps, 120 tbr, 120 tbn\n[out#0/mp4 @ 000001e789ee9ac0] Codec AVOption b:a (set bitrate (in bits/s)) has not been used for any stream. The most likely reason is either wrong type (e.g. a video option with no video streams) or that it is a private option of some decoder which was not actually used for any stream.\nStream mapping:\n  Stream #0:0 -> #0:0 (rawvideo (native) -> h264 (libx264))\nPress [q] to stop, [?] for help\n[libx264 @ 000001e789eecb80] using cpu capabilities: MMX2 SSE2Fast SSSE3 SSE4.2 AVX FMA3 BMI2 AVX2\n[libx264 @ 000001e789eecb80] profile High, level 5.1, 4:2:0, 8-bit\n[libx264 @ 000001e789eecb80] 264 - core 165 r3222 b35605a - H.264/MPEG-4 AVC codec - Copyleft 2003-2025 - http://www.videolan.org/x264.html - options: cabac=1 ref=5 deblock=1:0:0 analyse=0x3:0x113 me=hex subme=8 psy=1 psy_rd=1.00:0.00 mixed_ref=1 me_range=16 chroma_me=1 trellis=2 8x8dct=1 cqm=0 deadzone=21,11 fast_pskip=1 chroma_qp_offset=-2 threads=18 lookahead_threads=3 sliced_threads=0 nr=0 decimate=1 interlaced=0 bluray_compat=0 constrained_intra=0 bframes=3 b_pyramid=2 b_adapt=1 b_bias=0 direct=3 weightb=1 open_gop=0 weightp=2 keyint=250 keyint_min=25 scenecut=40 intra_refresh=0 rc_lookahead=50 rc=cbr mbtree=1 bitrate=1500 ratetol=1.0 qcomp=0.60 qpmin=0 qpmax=69 qpstep=4 vbv_maxrate=1500 vbv_bufsize=1500 nal_hrd=none filler=0 ip_ratio=1.40 aq=1:1.00\nOutput #0, mp4, to 'C:\\Users\\Peter\\Desktop\\stuff\\MIUN\\quantitative_research\\video_compression\\compressed_videos\\UVG\\h264\\1.5\\HoneyBee_1920x1080_120fps_420_8bit_YUV_h264.mp4':\n  Metadata:\n    encoder         : Lavf62.3.100\n  Stream #0:0: Video: h264 (avc1 / 0x31637661), yuv420p(tv, progressive), 1920x1080, q=2-31, 1500 kb/s, 120 fps, 15360 tbn\n    Metadata:\n      encoder         : Lavc62.11.100 libx264\n    Side data:\n      cpb: bitrate max/min/avg: 1500000/0/1500000 buffer size: 1500000 vbv_delay: N/A\nframe=    0 fps=0.0 q=0.0 size=       0KiB time=N/A bitrate=N/A speed=N/A elapsed=0:00:00.51    \nframe=   20 fps= 19 q=47.0 size=       0KiB time=00:00:00.15 bitrate=   2.6kbits/s speed=0.144x elapsed=0:00:01.03    \nframe=   64 fps= 41 q=45.0 size=       0KiB time=00:00:00.51 bitrate=   0.7kbits/s speed=0.33x elapsed=0:00:01.56    \nframe=  104 fps= 50 q=43.0 size=       0KiB time=00:00:00.85 bitrate=   0.5kbits/s speed=0.409x elapsed=0:00:02.07    \nframe=  148 fps= 57 q=43.0 size=       0KiB time=00:00:01.21 bitrate=   0.3kbits/s speed=0.467x elapsed=0:00:02.60    \nframe=  196 fps= 62 q=45.0 size=       0KiB time=00:00:01.60 bitrate=   0.2kbits/s speed=0.509x elapsed=0:00:03.14    \nframe=  233 fps= 64 q=44.0 size=       0KiB time=00:00:01.92 bitrate=   0.2kbits/s speed=0.525x elapsed=0:00:03.66    \nframe=  267 fps= 64 q=43.0 size=       0KiB time=00:00:02.20 bitrate=   0.2kbits/s speed=0.524x elapsed=0:00:04.19    \nframe=  310 fps= 66 q=43.0 size=       0KiB time=00:00:02.56 bitrate=   0.1kbits/s speed=0.543x elapsed=0:00:04.72    \nframe=  358 fps= 68 q=43.0 size=       0KiB time=00:00:02.96 bitrate=   0.1kbits/s speed=0.565x elapsed=0:00:05.24    \nframe=  410 fps= 71 q=43.0 size=     256KiB time=00:00:03.36 bitrate= 623.0kbits/s speed=0.581x elapsed=0:00:05.79    \nframe=  454 fps= 72 q=44.0 size=     256KiB time=00:00:03.76 bitrate= 556.9kbits/s speed=0.596x elapsed=0:00:06.32    \nframe=  483 fps= 71 q=44.0 size=     256KiB time=00:00:04.00 bitrate= 523.3kbits/s speed=0.585x elapsed=0:00:06.84    \nframe=  520 fps= 71 q=44.0 size=     256KiB time=00:00:04.31 bitrate= 485.9kbits/s speed=0.586x elapsed=0:00:07.36    \n[mp4 @ 000001e789ee9bc0] Starting second pass: moving the moov atom to the beginning of the file\n[out#0/mp4 @ 000001e789ee9ac0] video:404KiB audio:0KiB subtitle:0KiB other streams:0KiB global headers:0KiB muxing overhead: 1.945310%\nframe=  600 fps= 76 q=-1.0 Lsize=     412KiB time=00:00:04.98 bitrate= 676.7kbits/s speed=0.634x elapsed=0:00:07.86    \n[libx264 @ 000001e789eecb80] frame I:3     Avg QP:40.97  size: 31621\n[libx264 @ 000001e789eecb80] frame P:151   Avg QP:38.58  size:  1389\n[libx264 @ 000001e789eecb80] frame B:446   Avg QP:44.30  size:   242\n[libx264 @ 000001e789eecb80] consecutive B-frames:  0.8%  0.0%  0.5% 98.7%\n[libx264 @ 000001e789eecb80] mb I  I16..4: 52.2% 46.2%  1.6%\n[libx264 @ 000001e789eecb80] mb P  I16..4:  0.1%  0.0%  0.0%  P16..4:  3.6%  0.1%  8.3%  0.0%  0.0%    skip:87.8%\n[libx264 @ 000001e789eecb80] mb B  I16..4:  0.0%  0.0%  0.0%  B16..8:  3.7%  0.0%  0.0%  direct: 0.0%  skip:96.3%  L0: 2.3% L1:97.7% BI: 0.0%\n[libx264 @ 000001e789eecb80] 8x8 transform intra:45.3% inter:92.2%\n[libx264 @ 000001e789eecb80] direct mvs  spatial:97.8% temporal:2.2%\n[libx264 @ 000001e789eecb80] coded y,uvDC,uvAC intra: 22.2% 60.3% 21.3% inter: 0.1% 0.4% 0.0%\n[libx264 @ 000001e789eecb80] i16 v,h,dc,p: 35% 21%  7% 36%\n[libx264 @ 000001e789eecb80] i8 v,h,dc,ddl,ddr,vr,hd,vl,hu:  7%  5%  9% 12% 16% 15% 14% 11% 12%\n[libx264 @ 000001e789eecb80] i4 v,h,dc,ddl,ddr,vr,hd,vl,hu:  8%  6%  5% 12% 16% 13% 13% 11% 15%\n[libx264 @ 000001e789eecb80] i8c dc,h,v,p: 51% 14% 17% 18%\n[libx264 @ 000001e789eecb80] Weighted P-Frames: Y:0.0% UV:0.0%\n[libx264 @ 000001e789eecb80] ref P L0: 88.8%  6.0%  2.8%  1.1%  1.3%\n[libx264 @ 000001e789eecb80] ref B L0: 79.3% 13.0%  6.4%  1.4%\n[libx264 @ 000001e789eecb80] ref B L1: 99.3%  0.7%\n[libx264 @ 000001e789eecb80] kb/s:660.31\n",
  "seconds": 7.985126733779907,
  "probe_out": {}
}